<svg xmlns="http://www.w3.org/2000/svg" width="63.395" height="54.846" viewBox="0 0 63.395 54.846"><defs><style>.a{fill:#2b2b2b;}.b{fill:none;stroke:#2b2b2b;}</style></defs><g transform="translate(-461.28 -415.154)"><circle class="a" cx="16" cy="16" r="16" transform="translate(477 438)"/><rect class="a" width="11" height="19" rx="2" transform="translate(483 434) rotate(-90)"/><line class="b" y2="6" transform="translate(483.5 432)"/><line class="b" y2="6" transform="translate(501.5 432)"/><path class="a" d="M2.008,0H17.069a2.52,2.52,0,0,1,.781.121,2.1,2.1,0,0,1,.635.331,1.572,1.572,0,0,1,.425.49,1.227,1.227,0,0,1,.152.6l-.046,4.6a1.226,1.226,0,0,1-.163.593,1.6,1.6,0,0,1-.432.484,2.138,2.138,0,0,1-.636.326,2.538,2.538,0,0,1-.776.119H2.068a2.538,2.538,0,0,1-.776-.119,2.138,2.138,0,0,1-.636-.326,1.6,1.6,0,0,1-.432-.484,1.226,1.226,0,0,1-.163-.593l-.046-4.6a1.227,1.227,0,0,1,.152-.6A1.572,1.572,0,0,1,.592.452,2.1,2.1,0,0,1,1.227.121,2.52,2.52,0,0,1,2.008,0Z" transform="translate(482.962 415.154)"/><g transform="translate(461.666 433.11)"><rect class="a" width="11" height="19" rx="2" transform="translate(2.01 8.89)"/><path class="a" d="M2.057,8.906S.514-.19,0,2.743-.514,14.35,0,20.637,2.057,27.89,2.057,27.89Z" transform="translate(0 0)"/><line class="b" y2="6" transform="translate(12.51 25.619)"/><line class="b" y2="6" transform="translate(2.51 25.619)"/></g><g transform="translate(511.28 435.271)"><rect class="a" width="11" height="19" rx="2" transform="translate(0 6.73)"/><path class="a" d="M-.386,8.906S1.157-.19,1.671,2.743s.514,11.607,0,17.894S-.386,27.89-.386,27.89Z" transform="translate(11.338 -2.161)"/><line class="b" y2="6" transform="translate(0.5 23.459)"/><line class="b" y2="6" transform="translate(10.5 23.459)"/></g></g></svg>