<svg xmlns="http://www.w3.org/2000/svg" width="63.395" height="34.729" viewBox="0 0 63.395 34.729"><defs><style>.a{fill:#2b2b2b;}.b{fill:none;stroke:#2b2b2b;}</style></defs><g transform="translate(-57.741 -246.194)"><circle class="a" cx="16" cy="16" r="16" transform="translate(73.46 248.923)"/><g transform="translate(58.126 244.033)"><rect class="a" width="11" height="19" rx="2" transform="translate(2.01 8.89)"/><path class="a" d="M2.057,8.906S.514-.19,0,2.743-.514,14.35,0,20.637,2.057,27.89,2.057,27.89Z" transform="translate(0 0)"/><line class="b" y2="6" transform="translate(12.51 25.619)"/><line class="b" y2="6" transform="translate(2.51 25.619)"/></g><g transform="translate(107.741 246.194)"><rect class="a" width="11" height="19" rx="2" transform="translate(0 6.73)"/><path class="a" d="M-.386,8.906S1.157-.19,1.671,2.743s.514,11.607,0,17.894S-.386,27.89-.386,27.89Z" transform="translate(11.338 -2.161)"/><line class="b" y2="6" transform="translate(0.5 23.459)"/><line class="b" y2="6" transform="translate(10.5 23.459)"/></g></g></svg>