<svg xmlns="http://www.w3.org/2000/svg" width="106.286" height="72.677" viewBox="0 0 106.286 72.677"><defs><style>.a,.b{fill:#2b2b2b;}.b{stroke:#3b3b3b;}.c,.e{fill:none;}.c{stroke:#2b2b2b;}.d{stroke:none;}</style></defs><g transform="translate(439.982 -459.662) rotate(90)"><g transform="translate(-7.038 0.982)"><path class="a" d="M2.008,0H17.069a2.52,2.52,0,0,1,.781.121,2.1,2.1,0,0,1,.635.331,1.572,1.572,0,0,1,.425.49,1.227,1.227,0,0,1,.152.6l-.1,9.919H.114l-.1-9.919a1.227,1.227,0,0,1,.152-.6A1.572,1.572,0,0,1,.592.452,2.1,2.1,0,0,1,1.227.121,2.52,2.52,0,0,1,2.008,0Z" transform="translate(482.923 413.477)"/><g class="b" transform="translate(483 434) rotate(-90)"><rect class="d" width="11" height="19" rx="2"/><rect class="e" x="0.5" y="0.5" width="10" height="18" rx="1.5"/></g><line class="c" y2="6" transform="translate(483.5 433)"/><line class="c" y2="6" transform="translate(501.5 433)"/></g><g transform="translate(13.962 0.982)"><path class="a" d="M2.008,0H17.069a2.52,2.52,0,0,1,.781.121,2.1,2.1,0,0,1,.635.331,1.572,1.572,0,0,1,.425.49,1.227,1.227,0,0,1,.152.6l-.1,9.919H.114l-.1-9.919a1.227,1.227,0,0,1,.152-.6A1.572,1.572,0,0,1,.592.452,2.1,2.1,0,0,1,1.227.121,2.52,2.52,0,0,1,2.008,0Z" transform="translate(482.923 413.477)"/><g class="b" transform="translate(483 434) rotate(-90)"><rect class="d" width="11" height="19" rx="2"/><rect class="e" x="0.5" y="0.5" width="10" height="18" rx="1.5"/></g><line class="c" y2="6" transform="translate(483.5 433)"/><line class="c" y2="6" transform="translate(501.5 433)"/></g><rect class="a" width="38" height="53" rx="3" transform="translate(476.962 359)"/><g transform="translate(459.662 356.541)"><rect class="a" width="11" height="19" rx="2" transform="translate(2.395 6.73)"/><path class="a" d="M2.057,8.906S.514-.19,0,2.743-.514,14.35,0,20.637,2.057,27.89,2.057,27.89Z" transform="translate(0.385 -2.161)"/><line class="c" y2="6" transform="translate(12.895 23.459)"/><line class="c" y2="6" transform="translate(2.895 23.459)"/></g><g transform="translate(459.662 382.541)"><rect class="a" width="11" height="19" rx="2" transform="translate(2.395 6.73)"/><path class="a" d="M2.057,8.906S.514-.19,0,2.743-.514,14.35,0,20.637,2.057,27.89,2.057,27.89Z" transform="translate(0.385 -2.161)"/><line class="c" y2="6" transform="translate(12.895 23.459)"/><line class="c" y2="6" transform="translate(2.895 23.459)"/></g><g transform="translate(518.943 382.541)"><rect class="a" width="11" height="19" rx="2" transform="translate(0 6.73)"/><path class="a" d="M-.386,8.906S1.157-.19,1.671,2.743s.514,11.607,0,17.894S-.386,27.89-.386,27.89Z" transform="translate(11.339 -2.161)"/><line class="c" y2="6" transform="translate(0.5 23.459)"/><line class="c" y2="6" transform="translate(10.5 23.459)"/></g><g transform="translate(518.943 356.541)"><rect class="a" width="11" height="19" rx="2" transform="translate(0 6.73)"/><path class="a" d="M-.386,8.906S1.157-.19,1.671,2.743s.514,11.607,0,17.894S-.386,27.89-.386,27.89Z" transform="translate(11.339 -2.161)"/><line class="c" y2="6" transform="translate(0.5 23.459)"/><line class="c" y2="6" transform="translate(10.5 23.459)"/></g><g transform="translate(-7.077 -81.459)"><rect class="a" width="11" height="19" rx="2" transform="translate(483 434) rotate(-90)"/><line class="c" y2="6" transform="translate(483.5 432)"/><line class="c" y2="6" transform="translate(501.5 432)"/><path class="a" d="M2.008,0H17.069a2.52,2.52,0,0,1,.781.121,2.1,2.1,0,0,1,.635.331,1.572,1.572,0,0,1,.425.49,1.227,1.227,0,0,1,.152.6l-.046,4.6a1.226,1.226,0,0,1-.163.593,1.6,1.6,0,0,1-.432.484,2.138,2.138,0,0,1-.636.326,2.538,2.538,0,0,1-.776.119H2.068a2.538,2.538,0,0,1-.776-.119,2.138,2.138,0,0,1-.636-.326,1.6,1.6,0,0,1-.432-.484,1.226,1.226,0,0,1-.163-.593l-.046-4.6a1.227,1.227,0,0,1,.152-.6A1.572,1.572,0,0,1,.592.452,2.1,2.1,0,0,1,1.227.121,2.52,2.52,0,0,1,2.008,0Z" transform="translate(482.962 415.154)"/></g><g transform="translate(13.923 -81.459)"><rect class="a" width="11" height="19" rx="2" transform="translate(483 434) rotate(-90)"/><line class="c" y2="6" transform="translate(483.5 432)"/><line class="c" y2="6" transform="translate(501.5 432)"/><path class="a" d="M2.008,0H17.069a2.52,2.52,0,0,1,.781.121,2.1,2.1,0,0,1,.635.331,1.572,1.572,0,0,1,.425.49,1.227,1.227,0,0,1,.152.6l-.046,4.6a1.226,1.226,0,0,1-.163.593,1.6,1.6,0,0,1-.432.484,2.138,2.138,0,0,1-.636.326,2.538,2.538,0,0,1-.776.119H2.068a2.538,2.538,0,0,1-.776-.119,2.138,2.138,0,0,1-.636-.326,1.6,1.6,0,0,1-.432-.484,1.226,1.226,0,0,1-.163-.593l-.046-4.6a1.227,1.227,0,0,1,.152-.6A1.572,1.572,0,0,1,.592.452,2.1,2.1,0,0,1,1.227.121,2.52,2.52,0,0,1,2.008,0Z" transform="translate(482.962 415.154)"/></g></g></svg>